<svg xmlns="http://www.w3.org/2000/svg" viewBox="0 28.5 889.4 538.3" enable-background="new 0 28.5 889.4 538.3"><path fill="#FCEE21" d="M115.3 75.6h48.7v48.7h-48.7v-48.7z"/><path fill="#47FF53" d="M145.8 85.7h86.9v86.9h-86.9v-86.9z"/><path fill="#39B54A" d="M316.6 179.9s-8.5-43-4.8-67.8c3.7-25 5.4-66.4-43.6-80.2 0 0-10.8-4.6-17.9.1 0 0-10-8-25.9.4s-23.2 11.6-23.1 22.9c0 0-3.3 9-6.2 9.8-2.8.9-5.9 11.1-5 14.5.9 3.5-.8 13.3-1.7 14.5l-11.2 9.9s-7.3 8.8-1.9 13.4l5.4 4.6-1.9 4.8s-4.5 5.1 1.2 7l5.1 1s5.9 6.4-1.2 13.5c-5.8 5.7-.3 12.4-.3 12.4s2.2 5.9 1.3 8.6c-.9 2.6-1.5 13.9 14.2 13.1 15.7-.9 21.9-4.5 21.9-4.5s17.8 21.8 12.4 45.8c0 0-27.9 52.6 22.1 16.1 0 0 34.2 7.6 52.5 12.9 0-.1 36.7-25.1 8.6-72.8z"/><path fill="#715367" d="M509.6 428.8h55.3v55.3h-55.3v-55.3z"/><path fill="#0ff" d="M242.5 355.4h79.8v79.8h-79.8v-79.8z"/><path fill="#603813" d="M499.7 321.3h84.6v84.6h-84.6v-84.6z"/><path fill="#0084FF" d="M56.5 364.3h83.1v83.1h-83.1v-83.1z"/><path fill="#0ff" d="M11.7 384.8h62.7v62.7h-62.7v-62.7zm-11.7-41.1h23.3v23.3h-23.3v-23.3z"/><path fill="#970E45" d="M227.8 427.4h23.3v23.3h-23.3v-23.3z"/><path fill="#5F1E57" d="M391.4 384.8h47.5v47.5h-47.5v-47.5z"/><path fill="#ED1C24" d="M561.8 323.1h81.1v82.4h-81.1v-82.4z"/><path fill="#47FF53" d="M541.9 51h48.9v48.9h-48.9v-48.9z"/><path fill="#970E45" d="M687.8 242.2h54.6v54.6h-54.6v-54.6z"/><path fill="#0084FF" d="M167.3 424.9h68.2v68h-68.2v-68z"/><path fill="#00A99D" d="M566.3 75.5h57.9v57.9h-57.9v-57.9z"/><path fill="#F7931E" d="M331.8 394.6h81.3v81.3h-81.3v-81.3zm136.7-6.3h27.8v27.8h-27.8v-27.8z"/><path fill="#FCEE21" d="M672.3 146.9h27.9v27.9h-27.9v-27.9zm-202.5-17.9h27.9v28h-27.9v-28zm67.4 361.4h17.1v17.1h-17.1v-17.1z"/><path fill="#E30C60" d="M753.6 238.8h17.1v17.1h-17.1v-17.1z"/><path fill="#603813" d="M572 454.5h60.6v60.6h-60.6v-60.6z"/><path fill="#A67C52" d="M552 466.4h28.4v28.4h-28.4v-28.4z"/><path fill="#E30C60" d="M305.4 361h47.6v47.6h-47.6v-47.6z"/><path fill="#A67C52" d="M406.2 149.1h103.5v103.5h-103.5v-103.5z"/><path fill="#0084FF" d="M381.5 248.6h72.6v72.6h-72.6v-72.6z"/><path fill="#39B54A" d="M285.7 271.5h99.8v99.7h-99.8v-99.7z"/><path fill="#5F1E57" d="M533.8 242.2h105.2v105.2h-105.2v-105.2z"/><path fill="#ED1C24" d="M427.4 321.3h84.6v84.6h-84.6v-84.6z"/><path fill="#754C24" d="M482.4 137.3h47.2v47.2h-47.2v-47.2z"/><path fill="#00A99D" d="M404.3 232.1h27.5v27.5h-27.5v-27.5z"/><path fill="#ED1C24" d="M707.4 231.6h29.6v30.1h-29.6v-30.1z"/><path fill="#00A99D" d="M281.6 422.4h71.4v71.4h-71.4v-71.4z"/><path fill="#F7931E" d="M799 332.9h42.9v42.9h-42.9v-42.9zm-324.2-51.1h42.9v42.9h-42.9v-42.9z"/><path fill="#F15A24" d="M674.7 376.2h70.9v70.9h-70.9v-70.9z"/><path fill="#C1272D" d="M754.5 349.3h70.9v70.9h-70.9v-70.9z"/><path fill="#ED1C24" d="M733 431.8s-18.9-20-35.4-24.6l.5-10.8s-1.8-7.7 14.2-11.1c0 0 11.7 3.2 12.5-7.3 0 0-1.8-10.2 1.8-14 0 0 1.9-4.9-2.4-5l.6-2.4s5.3-2.2 2.7-5.8c0 0-1-5.3 1.8-7.1 0 0 8.5.6 7.9-4.9 0 0-4.6-10.8-8.5-15.4-3.7-4.6-1.4-7.2-1.4-7.2l1.8-1.7s1.5-1.9-.5-5.7c-2.1-3.7-8.2-21.1-11.6-24.7 0 0 16.3-2.3 5.3-23 0 0-3.3-5-4.1-10.3 0 0-1 8.1-3.7 6.8-2.7-1.3.9-4.6.9-4.6s-15.2-2.2-20.3 2.6c0 0-7.3 3.1-22.1-1.9s-40.3 10.7-38.1 19.4c0 0-23.7 17-16.5 45.8l16 36.3s4.8 10.2 2.4 13.3c0 0-3 .4-5.1 3.5 0 0-5.5 1.9-9.8 9.5l-8.4 7.1s-2.4 1.4-2.4 2.8-21.9 9.9-39.5 18.1c-17.6 8.1 34.5 69.6 114.4 56.2 69.5-12.2 47-33.9 47-33.9z"/><path fill="#F7931E" d="M564.1 100.1s9.8-19-16.2-29.3c-4.9-1.9-10.3-4.1-15.4-4.8-4-.5-8.9-.4-12.1 2.4-.5.5-1 1-1.7 1.4-.5.3-1.2.5-1.8.6l-8.8.6c-3 .5-5.8 1.8-8.4 3.1-3.3 1.7-6.3 3.9-8.9 6.6-1.5 1.5-2.8 3.2-4.1 5-1 1.4-1.8 3.7-3.7 3.7l-3-.5c0 1.8 0 3.7.4 5.5 1.5 6.4 7.7 9.1 13.8 7.6 0 0 1.5 8.1 0 9.3l-3.9 3.9c-1 1-2.2 2.2-3.1 3.3-1.4 1.7-2.1 3.9-.1 5.5.4.4.9.6 1.4.8.3.1 3.7.8 3.7.5-.1 1.3-.4 2.4-.9 3.6-.3.5-.5 1.2-.9 1.5-.3.3-.6.5-.6.9-.4 1.2 4.8 2.8 5.8 2.4l-3.6 1.3s-3 1.4 0 2.7c.9.4 1.8 1.2 2.3 1.9.3.3.4.6.5.9.4 1.2-.6 2.6-.9 3.6-.4 1.3-.4 2.8.6 3.9 1.3 1.4 3.9 1.3 5.5 1.4 2.6 0 5.1-.4 7.7-.6 3.3-.4 6.6.8 8.6 3.3 2.2 2.6 3.1 6 3.6 9.4 0 0-4.8 7-1.7 11.7 0 0-23.3 30.1-8.5 42.9 0 0 12.4-38.6 29.5-42.5 0 0 19.4-1.5 16.7-10.4 0 0-10.9-7.7-8.9-17.4 0 0 15.8-9 18.8-23.9 3.2-14.5-1.7-21.8-1.7-21.8z"/><path fill="#0ff" d="M212.4 492.9c-2.7 1.9-22.8 12.1-33.3 25.4-10.4 13.3-26.6.6-26.6.6-.8-5.3-1.5-10.8-3.6-15.7-.1-.5-.4-.9-.8-1.3-.5-.5-1.2-.9-1.8-1.2-1.9-1.2-3.5-3-4.4-5.1l-.6-1.5c-.4-.5-.9-.9-1.4-1.2-3.9-1.9-8.5-1.3-12.4-.1-10.8 3-18.3 5.3-19.6.5-.8-2.6-1-5.3-.9-8 0-2.2-.6-4.2-3.2-4.8-1.4-1.5 0-3.5 1.3-4.5 3.3-2.6 7.7-12.2 1.5-13.6l-3.1-.8s-1.3 0-2.4-.6c-1.2-.6-.9-2.3-.1-3.2v-4s-6.6 0-6.8-3.6c-.3-3.6 0-6.2 3.9-10.8 3.9-4.6 7.2-10.4 6.2-12.6 0 0-4-1.8-1.7-3.5 0 0 1.5-7.5 4.4-9.1l3.3-10.4s1.7-10.8 11.6-12.6c9.8-1.8 17-7.7 22.8-4.9 0 0 19.2-6.7 28.2 2.4s27.9 9.3 27.3 39.8c-.5 26.3-10.8 31.3-10.8 31.3s-5.9 7.6.1 16c6.4 8.2 4.2 6.5 22.9 17.1z"/><path fill="#FF1D25" d="M299.8 231.6s.4-14-2.3-21.1c-2.7-7.1-1-16-7.9-18.5l-24.3-14s-6.4-7-.5-12.7c5.9-5.8 3.2-9.8 3.2-9.8s-3.9-6 .6-6.3c0 0-3.9-4.9-.1-7 0 0 3.5-3.5-4-8.1s-6.7-8.5-6.7-8.5 0-3.6 4.1-4.9l18.1-13.1.6-11.6 2.2-.4s1.8.1 2.1 1.8l-.4-4s1.9-8.6 6.7-13.5c4.8-4.9 10.9-15.3 10.9-15.3s9.5-12.4 26.3-14c16.7-1.7 42.2-1.9 56.2 8.5s21.8 12.5 27.2 30.6l1.8 44.3s-5.7 20.2-29.2 36.9c0 0-15.7 9.9-14.5 28.8 0 0 5.4 14-9 15.4-14 1.3-54.6 9.9-61.1 16.5z"/><path fill="#603813" d="M705.5 514.9s8.5-1 8.5-3.5c0-3.5-1.4-3.1-1.4-3.1s-1.9-2.8.5-4.1c2.4-1.3 5.1-1.4 4.6-4.8l-6-10.3s-2.3-3.6 0-8 3.6-17.9-1.4-23.7c-5-5.7-7-9.4-7-9.4s.9-14.4-13.3-17.4c-14.2-3-31.8-3.9-31.8-3.9s-35.5-.1-40.2 42.1 2.3 57.4-9.3 74.5c-11.6 17 12 30.9 34.6 18.8 26.6-14.2 28.1-3.3 28.1-3.3s3.3-19.4 9.1-26.8c0 0 1.5-3.2 5.9-.8 0 0 7.5 3 10.3 3.6 2.8.5 7.1-1.3 7.9-4.4.8-3.2 2.3-6.2 2.3-6.2s3.3.4 4.2-1.4c.9-1.8-1.5-4.1-1.5-4.1l-4.1-3.8z"/><path fill="#F15A24" d="M708.4 333.4c-4.4-7.2-28.8-32.4-35.7-38.7-4.4-4.1-8.8-8.4-13.6-11.8-.6-.5-1.4-.9-1.9-1.5-1.3-1.5-1.2-5.1-1.4-7.2-.4-3.1-.5-6.3-.6-9.5-.1-6.6-.9-14.7 1.9-20.7 2.8-5.8 9.9-8.8 16-10.2 6.4-1.5 13.6-.1 20.1-1.9 5.7-1.7 11.7-6.2 7.7-14.2-3.9-7.5-4.4-9.4.5-13.9 1.5-1.7.5-4.6-1-6.4s4.4-3.9 3.3-6.3c-1.5-3.6-4.6-6.3-5.9-10.3-.1-.4 3.2-2.2 3.6-2.3 1.9-1.2 4-2.4 4.5-4.9.4-1.9-.6-3.9-1.9-5.3-6-6.3-21.9-11.8-19.3-22.9 1.4-6.4 3.6-12.9 3.1-19.6 1.2 1.9 1.9 4 1.9 4 1.2-2.8-1.3-9.9-1.3-9.9 9.5 6.3 2.7 27.3 2.7 27.3 19.4-44.1-32.2-57.3-32.2-57.3-24.1-22.5-84-2.3-84-2.3s-34.2 13.1-48.1 53.9l33.5 81.3s16.7 14 11.1 20.9c-5.7 6.8-2.2 19.8-2.2 19.8-2.6-13.6 7.7-19.3 7.7-19.3s4.6 8.1 3 18c-1.7 9.9-20.1 29.2-20.1 29.2s6.7-1.5 14-2.6c7.3-1 27.5 6.6 43.6 26.1 2.7 3.2 5.8 6.2 9 8.8 8.2 6.7 17.6 12 27 16.6 10 4.9 19.9 9.7 31.1 11.2 8.9 1.3 26.1 2.8 26.4-10.6 0-2.7-1.1-5.3-2.5-7.5z"/><path fill="#00A99D" d="M254.6 402.9s15.4-7.3 10.6-17.6c-4.9-10.2-12-39.5-2.1-52.5 0 0 8.9.6 12.4-11.2 3.5-11.8 29.5-48.3 16.3-83.4 0 0-1.7-36.9-38.7-57-38.6-20.9-56.8-20.6-74.4-18.5-25.1 3-41.1 19.3-41.1 19.3s7.9 5.9 6.8 6.7c-6.6 4.8-33.7 51.4-26.1 62.6l-4.5-.9-2.8.6s-1-.1-1 4c.1 4 .5 8.8.5 8.8l-10.8 14.3s-6.3 5.4-4.1 10.4 11.6 7.6 11.6 7.6l5.4 1.4s4.4 0 2.7 4.2l-1.8 5.5s-6.2 4.5.8 8.8l-1.2 6.7s3.3 3.3 7 3.2l-.6 1.5s-5-.1-5 4.2c0 4.4 3.2 6.7 3.2 6.7s3.5 9.1-1.7 13.1c-5.1 4-7.1 10.4-4.1 15.4l22.4 17.2s44.5 22.8 21.1 57.5c0 0-16.7 19.2 32.2-2.6 48.6-21.4 67-36 67-36z"/><path fill="#fff" d="M591.5 405.2c-25.1 0-43.6-23.6-37.7-47.9l22.4-92.5c18.1-73.5 44.1-179.2 44.1-179.2h-53c-12.9 0-20.5 5.9-28.3 17.6-43.2 64.6-138.1 215.8-138.1 215.8 10-40 59.6-233.4 59.6-233.4h-53c-12.9 0-20.5 5.9-28.3 17.6-64.7 96.8-130.4 192.9-195.8 289.2-5.3 7.7-14 12.4-23.3 12.4h-160.1v63.8h194.9c8.9 0 20.1-5.8 25.2-12.5 24.2-31.3 47.1-63.5 69.8-95.9 17.9-25.5 34.9-51.6 52.3-77.5l-50.2 185.7c23.9 0 46.7.1 62.9 0 8.9 0 20-5.8 25.2-12.5 24.2-31.3 47.1-63.5 69.8-95.9 17.9-25.5 34.9-51.6 52.3-77.4l-20.3 81.5c-10.3 60.4 30 103.5 90.6 104.3l303.2.3 13.8-63.3-298-.2z"/></svg>